<svg width="30" height="30" viewBox="0 0 30 30" fill="none" xmlns="http://www.w3.org/2000/svg">
<g clip-path="url(#clip0)">
<path d="M15.443 20.2755V20.1586C14.8457 20.1521 14.2743 20.1197 13.7224 20.0742C13.4237 20.8469 13.0017 21.5676 12.4758 22.2104C13.4692 22.3727 14.4756 22.4636 15.4819 22.4766L15.443 20.2755Z" fill="#727E91"/>
<path d="M12.8134 15.9772C12.3329 13.6787 10.6383 11.8088 8.38526 11.101C7.76195 10.9127 7.11915 10.8154 6.46987 10.8154C4.85964 10.8218 3.30135 11.4192 2.11316 12.497C-0.529437 14.8994 -0.71773 18.9964 1.68463 21.639C4.08699 24.2815 8.18398 24.4698 10.8266 22.0675C12.1771 20.8403 12.9497 19.1067 12.9433 17.2822C12.9433 16.8472 12.8978 16.4057 12.8134 15.9772ZM6.46987 16.4122C7.56716 16.4122 8.5346 17.1394 8.83327 18.1977C9.19687 19.5028 8.4437 20.8533 7.13214 21.2234V21.7948C7.13214 22.1519 6.83996 22.4441 6.48285 22.4441C6.12575 22.4441 5.83357 22.1519 5.83357 21.7948V21.2299C4.76225 20.9377 4.02206 19.9703 4.01557 18.86C4.01557 18.5029 4.30775 18.2107 4.66485 18.2107C5.02196 18.2107 5.31414 18.5029 5.31414 18.86C5.31414 19.4963 5.83357 20.0092 6.46987 20.0092C7.10617 20.0092 7.61911 19.4898 7.61911 18.8535C7.61911 18.2172 7.09968 17.7043 6.46338 17.7043C5.3531 17.7043 4.38566 16.9576 4.09997 15.8863C3.75585 14.5877 4.535 13.2372 5.84006 12.8866V12.6074C5.84006 12.2503 6.13224 11.9581 6.48935 11.9581C6.84645 11.9581 7.13863 12.2503 7.13863 12.6074V12.8996C8.19697 13.1982 8.92417 14.1657 8.92417 15.263C8.92417 15.6201 8.63199 15.9122 8.27488 15.9122C7.91778 15.9122 7.6256 15.6201 7.6256 15.263C7.6256 14.6267 7.10617 14.1072 6.46987 14.1072C5.83357 14.1072 5.32063 14.6202 5.31414 15.263C5.31414 15.8993 5.83357 16.4122 6.46987 16.4122Z" fill="#727E91"/>
<path d="M15.4235 18.8535L15.3846 16.555C14.982 16.5485 14.586 16.5356 14.2094 16.5096C14.2288 16.7693 14.2418 17.0225 14.2418 17.2757C14.2418 17.7822 14.1899 18.2951 14.0925 18.795C14.521 18.834 14.969 18.8535 15.4235 18.8535Z" fill="#727E91"/>
<path d="M22.5332 8.10785C22.0852 8.34159 21.6112 8.52988 21.1243 8.67273C19.6634 9.11424 17.748 9.35448 15.7482 9.35448C13.8328 9.35448 12.0083 9.13372 10.5993 8.72467C10.1124 8.59481 9.64488 8.41301 9.19687 8.18576L9.24232 10.0167C9.97601 10.2894 10.6578 10.679 11.2746 11.166C11.2941 11.1725 11.307 11.1725 11.3265 11.179C12.5732 11.4971 14.1444 11.6659 15.7482 11.6659C17.6051 11.6659 19.4296 11.4322 20.7477 11.0361C22.1566 10.6076 22.4683 10.1596 22.4683 10.0752C22.4683 9.98428 22.4618 9.89987 22.5332 9.80897V8.10785Z" fill="#727E91"/>
<path d="M20.7412 5.53017C19.4231 5.12761 17.5986 4.90036 15.7417 4.90036C13.8717 4.90036 12.1187 5.12761 10.8071 5.53017C9.43712 5.94571 9.13845 6.35476 9.13196 6.48462C9.13196 6.48462 9.13845 6.48462 9.13845 6.49761C9.17092 6.64045 9.56049 7.08197 10.9565 7.48452C12.2485 7.86111 13.9497 8.06888 15.7417 8.06888C17.5986 8.06888 19.4166 7.84163 20.7347 7.44557C22.1437 7.02353 22.4618 6.57552 22.4618 6.48462C22.4618 6.40021 22.1501 5.9587 20.7412 5.53017Z" fill="#727E91"/>
<path d="M29.987 23.4959V21.548C29.552 21.7688 29.0975 21.9571 28.6235 22.0999C27.1691 22.5415 25.2667 22.7817 23.2604 22.7817C21.4814 22.7817 19.7478 22.5804 18.3843 22.2233C17.8259 22.0805 17.287 21.8857 16.7675 21.6325L16.8 23.5154C16.8 23.5219 16.8 23.5219 16.8 23.5284C16.8 23.6258 17.0857 24.0608 18.4557 24.4828C19.7543 24.8789 21.5073 25.0996 23.3838 25.0996C25.2537 25.0996 27.0133 24.8724 28.3248 24.4633C29.6948 24.0348 29.9935 23.5868 29.9935 23.4959H29.987Z" fill="#727E91"/>
<path d="M22.5202 11.7309C22.0722 11.9581 21.6047 12.1464 21.1178 12.2893C19.6569 12.7308 17.7415 12.971 15.7352 12.971C14.7483 12.971 13.7678 12.9061 12.7939 12.7827C13.3198 13.5099 13.7094 14.328 13.9561 15.1981C14.5145 15.237 15.1184 15.263 15.7417 15.263C15.7612 15.263 15.7871 15.263 15.8066 15.263C16.8714 14.0943 19.7348 13.5099 22.5202 13.432V11.7309Z" fill="#727E91"/>
<path d="M28.5781 18.5094C27.1301 18.9379 25.2472 19.1717 23.2734 19.1717C21.358 19.1717 19.5335 18.9509 18.1245 18.5419C17.6376 18.4055 17.1636 18.2237 16.7091 17.9965L16.7351 19.4898L16.7416 20.0352C17.248 20.665 19.6699 21.4766 23.2669 21.4766C25.1433 21.4766 26.9159 21.2559 28.2469 20.8533C29.6494 20.4248 29.9545 19.9833 29.9545 19.8924C29.9545 19.821 29.9935 19.743 29.9935 19.6781H30V17.9575C29.5455 18.1848 29.0715 18.3795 28.5781 18.5094Z" fill="#727E91"/>
<path d="M28.2729 15.3604C26.9484 14.9578 25.1304 14.7435 23.2734 14.7435H23.163C21.4359 14.7435 19.7932 14.9383 18.5336 15.2954C17.1896 15.672 16.7286 16.1005 16.6702 16.2758C16.6637 16.2888 16.6637 16.2953 16.6637 16.3018C16.6637 16.3018 16.6637 16.3018 16.6767 16.3278C16.7156 16.4641 17.0987 16.9057 18.4947 17.3147C19.7867 17.6848 21.4879 17.8926 23.2799 17.8926C25.1304 17.8926 26.8834 17.6783 28.2145 17.2822C29.6559 16.8537 29.9805 16.4057 29.987 16.3083V16.3018C29.9805 16.2044 29.6559 15.7759 28.2729 15.3604Z" fill="#727E91"/>
</g>
<defs>
<clipPath id="clip0">
<rect width="30" height="30" fill="white"/>
</clipPath>
</defs>
</svg>
