<svg width="30" height="30" viewBox="0 0 30 30" fill="none" xmlns="http://www.w3.org/2000/svg">
<path d="M29.8961 19.8755C29.6967 19.5796 29.3044 19.5025 29.0085 19.7018L24.2102 22.8471H17.8939V20.21H24.4032C24.5382 20.21 24.6733 20.1585 24.7762 20.0813L29.7289 16.5051C30.0183 16.2993 30.0827 15.8941 29.8704 15.6111C29.6646 15.3216 29.2593 15.2573 28.9763 15.4696L24.1973 18.9236H17.8939V16.2221H24.4032C24.5447 16.2285 24.6862 16.1835 24.8019 16.0999L29.7546 12.1957C30.0312 11.9705 30.0762 11.5653 29.8511 11.2887C29.6324 11.0122 29.2336 10.9671 28.957 11.1794L24.178 14.9357H17.8939V12.3629H24.4032C24.564 12.3565 24.7248 12.2921 24.8405 12.1828L29.7932 7.59032C29.9862 7.40379 30.0505 7.12078 29.954 6.86993C29.8575 6.61908 29.6195 6.45185 29.3558 6.44541H23.2197C23.2132 6.44541 23.2004 6.32964 23.1811 6.27818C23.0846 6.03376 22.8466 5.86653 22.5829 5.86653H12.7419C12.5811 5.86653 12.4203 5.93085 12.3045 6.0402L11.8735 6.44541H5.59587C5.43507 6.45185 5.27427 6.51617 5.1585 6.63194L0.205825 11.218C0.0128641 11.4045 -0.0514563 11.6875 0.0450243 11.9384C0.141505 12.1892 0.37949 12.3565 0.643204 12.3629H6.76651V14.9357H0.643204C0.289442 14.9357 0 15.2251 0 15.5789C0 15.9327 0.289442 16.2221 0.643204 16.2221H6.76651V18.9236H0.643204C0.289442 18.9236 0 19.213 0 19.5668C0 19.9205 0.289442 20.21 0.643204 20.21H6.76651V22.8471H0.643204C0.289442 22.8471 0 23.1366 0 23.4903C0 23.8441 0.289442 24.1335 0.643204 24.1335H24.4032C24.5318 24.1271 24.654 24.0885 24.7569 24.0113L29.7096 20.7696C30.0055 20.5766 30.0891 20.1713 29.8961 19.8755ZM22.2227 7.75755C22.2291 7.75755 22.2356 7.73182 22.2484 7.73182H27.7157L24.1523 11.0765H18.6786L22.2227 7.75755ZM6.9466 11.0765H2.28337L5.84672 7.73182H10.4907L6.97876 11.025C6.9659 11.0314 6.95947 11.0122 6.9466 11.0765ZM14.6522 15.328C14.6458 15.6818 14.3563 15.9712 14.0026 15.9648C13.6488 15.9583 13.3593 15.6689 13.3658 15.3151C13.3658 14.7298 12.8898 14.2538 12.3045 14.2538C12.2981 14.2538 12.2916 14.2538 12.2916 14.2538C11.7063 14.2538 11.2303 14.7362 11.2368 15.3216C11.2368 15.9069 11.7192 16.3829 12.3045 16.3764C13.6038 16.3764 14.6522 17.4248 14.6522 18.7241C14.6393 19.7725 13.9447 20.6859 12.9413 20.9818V21.3998C12.9413 21.7536 12.6518 22.043 12.2981 22.043C11.9443 22.043 11.6549 21.7536 11.6549 21.3998V20.9818C10.6515 20.6859 9.9568 19.7725 9.95037 18.7241C9.95037 18.3704 10.2398 18.0809 10.5936 18.0809C10.9473 18.0809 11.2368 18.3704 11.2368 18.7241C11.2368 19.3094 11.7127 19.7854 12.2981 19.7854C12.8834 19.7854 13.3593 19.3094 13.3593 18.7241C13.3593 18.1388 12.8834 17.6628 12.2981 17.6628C11.2496 17.6628 10.3299 16.9682 10.0404 15.9583C9.68665 14.717 10.407 13.4113 11.6549 13.0575V12.6394C11.6549 12.2856 11.9443 11.9962 12.2981 11.9962C12.6518 11.9962 12.9413 12.2856 12.9413 12.6394V13.0575C13.9511 13.3534 14.6393 14.2667 14.6522 15.3151C14.6522 15.3216 14.6522 15.3216 14.6522 15.328Z" fill="#727E91"/>
</svg>
