<svg width="25" height="25" viewBox="0 0 25 25" fill="none" xmlns="http://www.w3.org/2000/svg">
<path d="M20.2153 7.26318C20.4849 7.26318 20.7035 7.04458 20.7035 6.7749V1.46484C20.7035 0.657129 20.0464 0 19.2387 0H1.46527C0.657551 0 0.000421524 0.657129 0.000421524 1.46484V23.5352C0.000421524 24.3429 0.657551 25 1.46527 25H19.2387C20.0464 25 20.7035 24.3429 20.7035 23.5352V19.9379C20.7035 19.6682 20.4849 19.4496 20.2153 19.4496C19.9456 19.4496 19.727 19.6682 19.727 19.9379V23.5352C19.727 23.8044 19.5079 24.0234 19.2387 24.0234H1.46527C1.19603 24.0234 0.976984 23.8044 0.976984 23.5352V1.46484C0.976984 1.19561 1.19603 0.976562 1.46527 0.976562H19.2387C19.5079 0.976562 19.727 1.19561 19.727 1.46484V6.7749C19.727 7.04458 19.9456 7.26318 20.2153 7.26318Z" fill="#727E91"/>
<path d="M10.3519 2.63672C7.87489 2.63672 5.85971 4.6519 5.85971 7.12891C5.85971 8.41392 6.40219 9.57446 7.26996 10.394C7.28622 10.4114 7.30351 10.4278 7.3224 10.4428C8.12177 11.1742 9.18559 11.621 10.3518 11.621C11.5181 11.621 12.5819 11.1742 13.3813 10.4428C13.4002 10.4278 13.4175 10.4113 13.4337 10.394C14.3016 9.57446 14.8441 8.41392 14.8441 7.12891C14.8441 4.6519 12.8289 2.63672 10.3519 2.63672ZM10.3519 10.6445C9.55458 10.6445 8.81874 10.3773 8.22831 9.92832C8.65746 9.16733 9.45829 8.69141 10.3519 8.69141C11.2455 8.69141 12.0463 9.16733 12.4755 9.92832C11.885 10.3773 11.1492 10.6445 10.3519 10.6445ZM9.57064 6.93359V6.61621C9.57064 6.18545 9.92113 5.83496 10.3519 5.83496C10.7827 5.83496 11.1331 6.18545 11.1331 6.61621V6.93359C11.1331 7.36436 10.7827 7.71484 10.3519 7.71484C9.92113 7.71484 9.57064 7.36436 9.57064 6.93359ZM13.181 9.21304C12.8209 8.67895 12.3218 8.26357 11.7424 8.00713C11.9723 7.70991 12.1097 7.3376 12.1097 6.93359V6.61621C12.1097 5.64692 11.3212 4.8584 10.3519 4.8584C9.38261 4.8584 8.59408 5.64692 8.59408 6.61621V6.93359C8.59408 7.3376 8.73144 7.70991 8.96142 8.00713C8.38197 8.26357 7.8829 8.67895 7.52279 9.21304C7.09169 8.62939 6.83627 7.90854 6.83627 7.12891C6.83627 5.19038 8.41337 3.61328 10.3519 3.61328C12.2904 3.61328 13.8675 5.19038 13.8675 7.12891C13.8675 7.90854 13.6121 8.62939 13.181 9.21304Z" fill="#727E91"/>
<path d="M12.9886 21.3867H10.3519C10.0823 21.3867 9.86362 21.6053 9.86362 21.875C9.86362 22.1447 10.0823 22.3633 10.3519 22.3633H12.9886C13.2582 22.3633 13.4769 22.1447 13.4769 21.875C13.4769 21.6053 13.2582 21.3867 12.9886 21.3867Z" fill="#727E91"/>
<path d="M12.9886 18.6523H6.05502C5.78539 18.6523 5.56674 18.8709 5.56674 19.1406C5.56674 19.4103 5.78539 19.6289 6.05502 19.6289H12.9886C13.2582 19.6289 13.4769 19.4103 13.4769 19.1406C13.4769 18.8709 13.2582 18.6523 12.9886 18.6523Z" fill="#727E91"/>
<path d="M12.9886 15.918H6.05502C5.78539 15.918 5.56674 16.1366 5.56674 16.4062C5.56674 16.6759 5.78539 16.8945 6.05502 16.8945H12.9886C13.2582 16.8945 13.4769 16.6759 13.4769 16.4062C13.4769 16.1366 13.2582 15.918 12.9886 15.918Z" fill="#727E91"/>
<path d="M4.31475 13.3267C4.22398 13.2358 4.09801 13.1836 3.9691 13.1836C3.84063 13.1836 3.71466 13.2358 3.62389 13.3267C3.53307 13.4175 3.48082 13.5435 3.48082 13.6719C3.48082 13.8003 3.53302 13.9263 3.62389 14.0171C3.71519 14.1079 3.84063 14.1602 3.9691 14.1602C4.09801 14.1602 4.2235 14.1079 4.31475 14.0171C4.40558 13.9263 4.45787 13.8003 4.45787 13.6719C4.45787 13.5435 4.40562 13.4175 4.31475 13.3267Z" fill="#727E91"/>
<path d="M4.31475 16.061C4.2235 15.9702 4.09801 15.918 3.9691 15.918C3.84063 15.918 3.71519 15.9702 3.62389 16.061C3.53307 16.1519 3.48082 16.2778 3.48082 16.4062C3.48082 16.5347 3.53302 16.6606 3.62389 16.7515C3.71519 16.8423 3.84063 16.8945 3.9691 16.8945C4.09801 16.8945 4.2235 16.8423 4.31475 16.7515C4.40558 16.6606 4.45787 16.5347 4.45787 16.4062C4.45787 16.2778 4.40562 16.1519 4.31475 16.061Z" fill="#727E91"/>
<path d="M4.31475 18.7954C4.2235 18.7046 4.09801 18.6523 3.9691 18.6523C3.84063 18.6523 3.71519 18.7046 3.62389 18.7954C3.53307 18.8862 3.48082 19.0122 3.48082 19.1406C3.48082 19.269 3.53302 19.395 3.62389 19.4858C3.71466 19.5767 3.84063 19.6289 3.9691 19.6289C4.09801 19.6289 4.22398 19.5767 4.31475 19.4858C4.40558 19.395 4.45787 19.269 4.45787 19.1406C4.45787 19.0122 4.40562 18.8862 4.31475 18.7954Z" fill="#727E91"/>
<path d="M12.9886 13.1836H6.05502C5.78539 13.1836 5.56674 13.4022 5.56674 13.6719C5.56674 13.9416 5.78539 14.1602 6.05502 14.1602H12.9886C13.2582 14.1602 13.4769 13.9416 13.4769 13.6719C13.4769 13.4022 13.2582 13.1836 12.9886 13.1836Z" fill="#727E91"/>
<path d="M23.9747 6.3633C23.5003 6.08942 22.9477 6.01667 22.4185 6.15841C21.8894 6.30021 21.4471 6.63957 21.1733 7.11393L15.0287 17.7567C14.995 17.815 14.9737 17.8797 14.9663 17.9466L14.5337 21.8209C14.5123 22.0136 14.6069 22.2009 14.7748 22.2979C14.8507 22.3417 14.9349 22.3633 15.0189 22.3633C15.1211 22.3633 15.2228 22.3314 15.3085 22.2682L18.4474 19.9565C18.5017 19.9166 18.5471 19.8658 18.5807 19.8075L24.7253 9.16476C25.2907 8.18547 24.954 6.92873 23.9747 6.3633ZM15.6281 20.82L15.854 18.797L17.2671 19.6129L15.6281 20.82ZM17.9791 18.8963L16.1186 17.8221L21.0495 9.28156L22.9101 10.3558L17.9791 18.8963ZM23.8796 8.67643L23.3983 9.51007L21.5377 8.43586L22.019 7.60221C22.1624 7.35373 22.3941 7.17599 22.6712 7.10172C22.9485 7.02741 23.2379 7.06559 23.4864 7.20905C23.7349 7.35251 23.9126 7.58415 23.9869 7.86129C24.0611 8.13844 24.023 8.42795 23.8796 8.67643Z" fill="#727E91"/>
</svg>
